<svg xmlns="http://www.w3.org/2000/svg" viewBox="0 0 100.1 29.4" id="decorist"><path fill="#595959" d="M99.6 21.9c-.2.3-.3.6-.5.7-.2.2-.4.2-.7.2-.3 0-.6-.1-.7-.3s-.2-.6-.2-1.1v-5.6h1.8v-.4h-1.8v-2.1H96v2.1h-1.1v.4H96v5.7c0 .6.1 1.1.4 1.5.2.3.7.5 1.5.5 1 0 1.6-.4 2.1-1.1l.1-.3-.5-.2zm-12.2-3c-.4-.2-.7-.3-1.1-.5-.4-.1-.7-.3-1.1-.4-.3-.1-.6-.3-.8-.5-.2-.2-.3-.5-.3-.8 0-.4.1-.6.4-.8s.6-.3 1-.3c.7 0 1.1.2 1.4.6.3.4.5.9.6 1.5h.4v-2.1c-1-.3-1.8-.5-2.4-.5-.7 0-1.4.2-1.9.6-.5.4-.8 1-.8 1.8 0 .4.1.8.3 1.1.2.3.5.5.8.7s.7.3 1.1.5.7.3 1.1.4c.3.1.6.3.8.5.2.2.3.5.3.8 0 .4-.2.8-.5 1-.4.3-.8.4-1.2.4-.8 0-1.3-.3-1.7-.8-.4-.5-.6-1.2-.6-2h-.5v2.6c.9.3 1.9.5 2.8.5.8 0 1.5-.2 2.1-.6.6-.4.9-1 .9-1.8 0-.5-.1-1-.3-1.3-.2-.2-.4-.4-.8-.6zM74 13.8c.3 0 .5-.1.7-.3s.3-.4.3-.7-.1-.5-.3-.7c-.2-.2-.4-.3-.7-.3-.3 0-.5.1-.7.3s-.3.4-.3.7.1.5.3.7c.2.2.4.3.7.3zm.8 1.6h-3.1v.4h1.4v7.1h-1.4v.4h4.5v-.4h-1.4v-7.5zm-10.2-.2c-.6 0-1 .2-1.4.6-.4.4-.7.9-.9 1.5v-1.9h-3.1v.4h1.4v7.1h-1.4v.4h4.4v-.4h-1.4v-3.5c0-.9.2-1.7.6-2.4.4-.8.8-1.1 1.2-1.1.1 0 .2 0 .3.1.1.1.1.2.1.3v.8c0 .2.1.4.2.6.2.2.4.2.6.2.6 0 .8-.4.8-1.1 0-.5-.1-.9-.4-1.1-.2-.4-.5-.5-1-.5zm-13.6 5c0 .2 0 .5-.1.8 0 .3-.1.6-.2.8l-.3.6c-.1.2-.3.4-.6.5s-.5.2-.8.1c-.3 0-.6 0-.8-.1s-.4-.3-.6-.5l-.3-.6c-.1-.2-.1-.5-.2-.8 0-.3-.1-.6-.1-.8v-1.8c0-.2 0-.5.1-.8 0-.3.1-.6.2-.8l.3-.6c.1-.2.3-.4.6-.5.2-.1.5-.1.8-.1s.6 0 .8.1.4.3.6.5l.3.6c.1.2.1.5.2.8 0 .3.1.6.1.8v1.8zm1-3.5c-.3-.4-.7-.8-1.2-1.1s-1.1-.4-1.8-.4-1.3.1-1.8.4c-.5.3-.9.6-1.2 1.1-.3.4-.5.9-.6 1.3-.1.4-.2.9-.2 1.3s.1.9.2 1.3c.1.5.3.9.6 1.3s.7.8 1.2 1.1 1.1.4 1.8.4 1.3-.1 1.8-.4c.5-.3.9-.6 1.2-1.1.3-.4.5-.9.6-1.3.1-.5.2-.9.2-1.3s-.1-.9-.2-1.3c-.1-.5-.3-.9-.6-1.3zm-14.5 5.7c-.4.4-1 .6-1.7.6-1.6 0-2.4-1.2-2.4-3.7s.7-3.7 2.1-3.7c.5 0 .9.1 1.2.4.3.2.4.6.4 1v.5c0 .6.3.8.8.8.6 0 .9-.3.9-.9 0-.7-.3-1.2-1-1.6-.7-.4-1.4-.6-2.2-.6-1.1 0-2.1.4-2.8 1.2s-1.1 1.8-1.1 2.9c0 1.1.3 2.1 1 2.9.7.8 1.6 1.2 2.8 1.2.8 0 1.5-.2 2.1-.6.6-.4 1.1-1.1 1.4-2.1l-.4-.1c-.3.8-.7 1.4-1.1 1.8zm-18.3-4.9c.1-.3.1-.6.3-.9.1-.3.3-.5.6-.7.2-.2.5-.3.9-.3.3 0 .6.1.8.2.2.1.4.3.5.4.1.2.2.4.3.7.1.3.1.5.1.7v.7h-3.5c-.1-.3-.1-.5 0-.8zm5.4 1.3c0-1.1-.3-2-1-2.6-.6-.7-1.5-1-2.5-1-1.1 0-2.1.4-2.8 1.2-.7.8-1 1.8-1 2.9 0 1.2.3 2.2 1 3 .6.8 1.5 1.2 2.7 1.2.9 0 1.7-.2 2.2-.5.6-.4 1-1 1.4-1.9l-.4-.1c-.5 1.4-1.4 2.1-2.7 2.1-.4 0-.8-.1-1.1-.2-.3-.1-.5-.3-.7-.5s-.3-.5-.4-.9-.2-.7-.2-1.1v-1.6h5.5zM7.8 16.2l-.3-.6c-.1-.3-.3-.6-.4-1l-.3-1.2c-.1-.7-.2-1.4-.3-2l-.3-1.5C6.1 9.5 6 9 6 8.6c-.1-.5-.1-1-.1-1.5 0-.4 0-1 .1-1.6.1-.6.2-1.2.3-1.7.2-.5.4-1 .6-1.4.2-.4.6-.6.9-.6.4 0 .8.3 1.1 1.1.3.8.5 1.7.6 2.8s.2 2.2.1 3.4c0 1.2-.2 2.1-.3 2.9-.2.9-.4 1.7-.6 2.4s-.5 1.3-.8 1.9c0 .1 0 0-.1-.1zm-1.2 4.9c-.3.7-.7 1.3-1.1 1.9-.4.5-.7 1.1-1.1 1.6-.2.3-.4.5-.5.7s-.3.3-.4.5-.3.3-.4.4c-.2.1-.3.3-.6.5-.3.1-.5.1-.6 0s-.3-.2-.3-.4c-.1-.2-.1-.3-.2-.5l-.1-.4c.1-.6.2-1.2.4-1.9s.6-1.5 1.1-2.4c.5-.7.8-1.3 1.2-1.8.3-.4.6-.8.9-1.1s.5-.4.7-.5.4-.2.6-.2c.6.5.9 1 .9 1.6 0 .7-.2 1.4-.5 2zm3.5 2.7c-.3-1-.7-2-1-3-.3-.9-.5-1.6-.6-2 .4-.7.7-1.4 1-2.3.3-.9.5-1.7.7-2.6.2-.9.3-1.7.5-2.4.1-.8.2-1.4.3-1.9V4.4l-.5-2.1c-.1-.7-.5-1.2-.9-1.6C9 .2 8.5 0 8 0s-.9.1-1.3.4c-.4.3-.7.7-1 1.3-.3.5-.5 1.1-.7 1.8s-.3 1.3-.4 2-.1 1.3 0 1.9c0 .4.1 1 .2 1.7s.3 1.6.4 2.4c.2.9.4 1.7.6 2.6.2.8.4 1.6.6 2.2-.3 0-.6.1-.8.2l-.6.3c-.2.1-.4.3-.6.5l-.8.8c-.2.2-.4.5-.7 1-.4.5-.7 1-1 1.6-.4.6-.7 1.3-1 1.9-.3.6-.5 1.3-.7 2-.2.8-.2 1.4-.2 2 .1.6.3 1 .7 1.4.6.4 1.3.3 2-.1s1.3-1 2-1.8c.6-.8 1.2-1.7 1.7-2.6.5-1 1-1.8 1.3-2.6.3.7.6 1.4.9 2.2.2.6.5 1.3.7 1.8.2.6.4 1.1.6 1.7.2.6.5 1.2.8 1.8.3.4.5.7.7.8.1.2.3.2.4 0-.2-.6-.4-1.4-.8-2.4-.2-.9-.6-1.9-.9-3z"></path></svg>